HIERARCHY
ROOT joint_Root
{
	OFFSET 0.0 0.0 0.0
	CHANNELS 6 Xposition Yposition Zposition Zrotation Xrotation Yrotation 
	JOINT Hips
	{
		OFFSET -17.1583 93.1646 452.98
		CHANNELS 6 Xposition Yposition Zposition Zrotation Xrotation Yrotation 
		JOINT Spine
		{
			OFFSET 15.7357 0.0 0.0
			CHANNELS 6 Xposition Yposition Zposition Zrotation Xrotation Yrotation 
			JOINT Chest
			{
				OFFSET 8.98455 -0.406207 0.0
				CHANNELS 6 Xposition Yposition Zposition Zrotation Xrotation Yrotation 
				JOINT Neck
				{
					OFFSET 16.3773 0.0 0.0
					CHANNELS 6 Xposition Yposition Zposition Zrotation Xrotation Yrotation 
					JOINT Head
					{
						OFFSET 6.45672 0.0 0.0
						CHANNELS 6 Xposition Yposition Zposition Zrotation Xrotation Yrotation 
						End Site
						{
							OFFSET 0.0 0.0 0.0
						}
					}
				}
				JOINT Shoulder_L
				{
					OFFSET 12.9942 -0.242716 4.98039
					CHANNELS 6 Xposition Yposition Zposition Zrotation Xrotation Yrotation 
					JOINT UpperArm_L
					{
						OFFSET 5.34809 0.0 0.0
						CHANNELS 6 Xposition Yposition Zposition Zrotation Xrotation Yrotation 
						JOINT LowerArm_L
						{
							OFFSET 24.3286 1.87007e-05 0.0
							CHANNELS 6 Xposition Yposition Zposition Zrotation Xrotation Yrotation 
							JOINT Hand_L
							{
								OFFSET 22.2916 0.0 0.0
								CHANNELS 6 Xposition Yposition Zposition Zrotation Xrotation Yrotation 
								End Site
								{
									OFFSET 0.0 0.0 0.0
								}
							}
						}
					}
				}
				JOINT Shoulder_R
				{
					OFFSET 12.9945 -0.242716 -4.98039
					CHANNELS 6 Xposition Yposition Zposition Zrotation Xrotation Yrotation 
					JOINT UpperArm_R
					{
						OFFSET -5.34813 0.0 0.0
						CHANNELS 6 Xposition Yposition Zposition Zrotation Xrotation Yrotation 
						JOINT LowerArm_R
						{
							OFFSET -24.3289 0.000322201 0.0
							CHANNELS 6 Xposition Yposition Zposition Zrotation Xrotation Yrotation 
							JOINT Hand_R
							{
								OFFSET -22.2915 -0.000108084 0.0
								CHANNELS 6 Xposition Yposition Zposition Zrotation Xrotation Yrotation 
								End Site
								{
									OFFSET 0.0 0.0 0.0
								}
							}
						}
					}
				}
			}
		}
		JOINT UpperLeg_L
		{
			OFFSET -2.19248 -6.46944 0.0
			CHANNELS 6 Xposition Yposition Zposition Zrotation Xrotation Yrotation 
			JOINT LowerLeg_L
			{
				OFFSET 39.0811 0.0 -1.23785e-05
				CHANNELS 6 Xposition Yposition Zposition Zrotation Xrotation Yrotation 
				JOINT Foot_L
				{
					OFFSET 40.9854 0.0 -1.26872e-05
					CHANNELS 6 Xposition Yposition Zposition Zrotation Xrotation Yrotation 
					JOINT Toes_L
					{
						OFFSET 11.7543 0.0 0.0
						CHANNELS 6 Xposition Yposition Zposition Zrotation Xrotation Yrotation 
						End Site
						{
							OFFSET 0.0 0.0 0.0
						}
					}
				}
			}
		}
		JOINT UpperLeg_R
		{
			OFFSET -2.19251 6.46944 0.0
			CHANNELS 6 Xposition Yposition Zposition Zrotation Xrotation Yrotation 
			JOINT LowerLeg_R
			{
				OFFSET -39.0811 -0.00228153 -0.0401928
				CHANNELS 6 Xposition Yposition Zposition Zrotation Xrotation Yrotation 
				JOINT Foot_R
				{
					OFFSET -40.9854 0.0 0.0
					CHANNELS 6 Xposition Yposition Zposition Zrotation Xrotation Yrotation 
					JOINT Toes_R
					{
						OFFSET -11.7543 0.0 0.0
						CHANNELS 6 Xposition Yposition Zposition Zrotation Xrotation Yrotation 
						End Site
						{
							OFFSET 0.0 0.0 0.0
						}
					}
				}
			}
		}
	}
}
MOTION
Frames:	4
Frame Time:	0.0333333
0.000000 0.000000 0.000000 0.000000 0.000000 -0.000000 0.366091 93.284100 -0.543942 90.340600 2.501980 0.923332 15.735700 0.000005 -0.000001 72.680400 86.939600 -63.203400 8.984550 -0.406207 -0.000000 -1.637590 -2.595190 18.916000 16.377300 -0.000001 -0.000001 -1.607460 2.576790 6.232080 6.456720 -0.000001 -0.000000 -3.499250 1.266730 12.584700 12.994200 -0.242716 4.980390 -86.933500 -6.632340 -65.116700 5.348090 -0.000007 -0.000001 -27.122400 -55.221900 -58.696000 24.328600 0.000019 0.000005 1.225680 25.972800 -2.796800 22.291600 -0.000001 0.000005 48.382200 4.497450 16.642100 12.994500 -0.242716 -4.980390 89.337000 2.361940 -74.316100 -5.348130 -0.000001 -0.000004 -58.215100 7.771930 -5.350940 -24.328900 0.000322 -0.000009 2.704620 9.764930 -15.569500 -22.291500 -0.000108 -0.000004 7.419870 5.227410 2.022430 -2.192480 -6.469440 -0.000000 -175.903000 -7.023500 0.414968 39.081100 -0.000007 -0.000012 0.029207 -0.139418 11.832300 40.985400 -0.000006 -0.000013 -0.440042 16.499700 -67.042300 11.754300 -0.000000 0.000003 -0.000152 0.170149 -9.675530 -2.192510 6.469440 -0.000001 174.404000 4.858080 -178.232000 -39.081100 -0.002282 -0.040193 0.019528 -0.081098 11.290500 -40.985400 0.000008 0.000006 -7.216700 3.130430 -67.572200 -11.754300 -0.000006 -0.000006 -0.010591 0.275672 -5.372320
0.000000 0.000000 0.000000 0.000000 0.000000 -0.000000 0.381730 93.276200 -0.475293 90.315600 2.489240 0.917691 15.735700 0.000005 -0.000001 72.667800 86.973500 -63.216900 8.984550 -0.406207 -0.000000 -1.704980 -2.579740 18.862800 16.377300 -0.000001 -0.000001 -1.533640 2.557070 6.232980 6.456720 -0.000001 -0.000000 -3.444040 1.231550 12.668400 12.994200 -0.242716 4.980390 -86.939100 -6.596760 -65.039500 5.348090 -0.000007 -0.000001 -27.043000 -55.287700 -58.571600 24.328600 0.000019 0.000005 1.187750 25.888700 -2.718520 22.291600 -0.000001 0.000005 48.329400 4.493120 16.713700 12.994500 -0.242716 -4.980390 89.315000 2.432140 -74.266300 -5.348130 -0.000001 -0.000004 -58.288800 7.696160 -5.324460 -24.328900 0.000322 -0.000009 2.710190 9.680130 -15.728800 -22.291500 -0.000108 -0.000004 7.298720 5.228160 2.002950 -2.192480 -6.469440 -0.000000 -175.894000 -6.984210 0.414474 39.081100 -0.000007 -0.000012 0.029968 -0.141938 11.922200 40.985400 -0.000006 -0.000013 -0.415390 16.420200 -67.169700 11.754300 -0.000000 0.000003 -0.000187 0.170712 -9.652640 -2.192510 6.469440 -0.000001 174.403000 4.867000 -178.147000 -39.081100 -0.002282 -0.040193 0.018589 -0.077018 11.201300 -40.985400 0.000008 0.000006 -7.240650 3.145890 -67.528400 -11.754300 -0.000006 -0.000006 -0.010205 0.272829 -5.488670
0.000000 0.000000 0.000000 0.000000 0.000000 -0.000000 0.403903 93.260900 -0.401032 90.334700 2.519390 0.981865 15.735700 0.000005 -0.000001 72.606800 86.983600 -63.188100 8.984550 -0.406207 -0.000000 -1.727600 -2.579030 18.797800 16.377300 -0.000001 -0.000001 -1.501760 2.552910 6.199620 6.456720 -0.000001 -0.000000 -3.371700 1.174300 12.782000 12.994200 -0.242716 4.980390 -86.953800 -6.558610 -65.018300 5.348090 -0.000007 -0.000001 -26.833700 -55.317100 -58.258500 24.328600 0.000019 0.000005 1.216950 25.754100 -2.798820 22.291600 -0.000001 0.000005 48.390700 4.493210 16.712100 12.994500 -0.242716 -4.980390 89.290700 2.515670 -74.247800 -5.348130 -0.000001 -0.000004 -58.384300 7.687270 -5.273320 -24.328900 0.000322 -0.000009 2.695860 9.482660 -15.956100 -22.291500 -0.000108 -0.000004 7.380990 5.230410 1.944870 -2.192480 -6.469440 -0.000000 -175.919000 -6.885970 0.483678 39.081100 -0.000007 -0.000012 0.030161 -0.141845 12.004300 40.985400 -0.000006 -0.000013 -0.389983 16.349700 -67.224500 11.754300 -0.000000 0.000003 -0.000208 0.171049 -9.638950 -2.192510 6.469440 -0.000001 174.370000 4.925850 -178.070000 -39.081100 -0.002282 -0.040193 0.019257 -0.079683 11.299000 -40.985400 0.000008 0.000006 -7.158110 3.202470 -67.656400 -11.754300 -0.000006 -0.000006 -0.010394 0.274224 -5.431580
0.000000 0.000000 0.000000 0.000000 0.000000 -0.000000 0.414229 93.251000 -0.326699 90.295900 2.499410 1.029670 15.735700 0.000005 -0.000001 72.724900 86.996400 -63.316900 8.984550 -0.406207 -0.000000 -1.750100 -2.560590 18.776500 16.377300 -0.000001 -0.000001 -1.434130 2.533490 6.218700 6.456720 -0.000001 -0.000000 -3.356130 1.148000 12.838000 12.994200 -0.242716 4.980390 -86.975800 -6.494980 -64.964600 5.348090 -0.000007 -0.000001 -26.684800 -55.361100 -58.057900 24.328600 0.000019 0.000005 1.203720 25.828100 -2.761050 22.291600 -0.000001 0.000005 48.457000 4.495370 16.676500 12.994500 -0.242716 -4.980390 89.260600 2.619540 -74.231500 -5.348130 -0.000001 -0.000004 -58.500600 7.645990 -5.279900 -24.328900 0.000322 -0.000009 2.728620 9.441550 -16.206200 -22.291500 -0.000108 -0.000004 7.284280 5.229930 1.957270 -2.192480 -6.469440 -0.000000 -175.874000 -6.880800 0.539974 39.081100 -0.000007 -0.000012 0.030328 -0.141595 12.089500 40.985400 -0.000006 -0.000013 -0.364266 16.341300 -67.293400 11.754300 -0.000000 0.000003 -0.000150 0.170119 -9.676750 -2.192510 6.469440 -0.000001 174.393000 4.864050 -177.944000 -39.081100 -0.002282 -0.040193 0.018243 -0.075028 11.237300 -40.985400 0.000008 0.000006 -7.218940 3.175830 -67.638000 -11.754300 -0.000006 -0.000006 -0.010340 0.273825 -5.447900
